<svg width="44" height="44" viewBox="0 0 44 44" fill="none" xmlns="http://www.w3.org/2000/svg">
<path d="M0.672353 6.17408C0.309106 6.20385 0.0113625 6.23363 0.00540762 6.23958C-0.0481862 6.30509 0.309106 8.67513 0.523481 9.67554C0.797405 10.9439 1.01178 11.8669 1.11301 12.2064C1.17256 12.4029 1.30357 12.8554 1.41076 13.2187C2.27421 16.1723 3.64383 19.1378 5.15042 21.3173C6.77014 23.6635 8.58638 25.3309 11.1053 26.7898C12.4332 27.564 13.8505 28.2071 15.0474 28.5823C15.9466 28.8681 17.9951 29.3266 18.0546 29.2552C18.0784 29.2313 17.4591 27.8022 17.2388 27.3734C17.0244 26.9566 17.1435 27.0221 15.8513 26.6767C14.6663 26.3671 13.4217 25.8192 12.2605 25.1046C11.9866 24.9379 11.7544 24.8009 11.7425 24.8009C11.7127 24.8009 10.9802 24.3007 10.5813 24.003C8.89603 22.7524 7.24058 20.9362 6.19252 19.1914C5.84714 18.6138 5.12064 17.1965 4.79312 16.4641C3.88798 14.4514 3.03644 11.7062 2.50645 9.10983C2.41713 8.68108 2.33376 8.27615 2.32185 8.21065C2.29208 8.07964 2.29803 8.07964 3.17935 8.10346C4.66212 8.14514 6.21038 8.30592 6.88924 8.48457C7.00238 8.51434 7.43113 8.60962 7.84202 8.69895C8.2529 8.78231 8.6102 8.87759 8.64593 8.90737C8.6757 8.93714 8.74716 8.96096 8.80075 8.96096C8.85435 8.96096 9.15804 9.03837 9.47365 9.13961C10.9147 9.58027 13.0942 10.5926 13.9219 11.2C14.0768 11.3131 14.2197 11.4025 14.2435 11.4025C14.2971 11.4025 15.3213 12.1706 15.6548 12.4624C17.6914 14.2429 19.1265 16.2914 19.7994 18.3756C20.0257 19.0783 20.0971 19.3701 20.2341 20.1561C20.3353 20.7635 20.3056 22.2046 20.1686 22.9549C20.0078 23.8541 19.8828 24.2769 19.7934 24.2471C19.7518 24.2352 19.5255 23.866 19.2873 23.4253C18.537 22.0617 17.0363 19.8882 15.9228 18.5483C14.8033 17.2085 13.7969 16.2259 12.4035 15.1064C11.7008 14.5407 10.5455 13.7487 10.1346 13.5462C10.0691 13.5105 9.90836 13.4212 9.77735 13.3378C9.64634 13.2544 9.45579 13.1532 9.35456 13.1056C9.25332 13.0579 9.14614 12.9924 9.12827 12.9567C9.10445 12.9209 9.05681 12.8912 9.02108 12.8912C8.98535 12.8912 9.12827 13.046 9.33669 13.2306C9.88454 13.7189 11.8735 15.7138 12.2308 16.1366C14.3864 18.6614 16.5242 21.9426 18.0725 25.1106C18.3405 25.6525 18.5608 26.1169 18.5608 26.1348C18.5608 26.1527 18.668 26.3968 18.799 26.6767C18.93 26.9566 19.0372 27.2186 19.0372 27.2603C19.0372 27.302 19.061 27.3615 19.0848 27.3913C19.1146 27.427 19.2337 27.7188 19.3587 28.0463C19.7934 29.1897 20.246 30.2556 20.508 30.7498L20.776 31.256L20.0674 31.9289C17.8343 34.0727 15.3868 35.3053 12.5166 35.7341C11.677 35.8591 9.7714 35.8234 9.09254 35.6745C8.00875 35.4304 7.60382 35.3232 7.60382 35.2815C7.60382 35.21 7.97303 34.3585 8.19931 33.9119C8.77098 32.7804 10.0513 31.3394 11.1112 30.6426C11.6234 30.3032 12.7131 29.7435 12.8501 29.7435C12.993 29.7435 12.8024 29.6005 12.4332 29.4398C12.2188 29.3385 11.7127 29.0944 11.3078 28.8919L10.5813 28.5287L10.3788 28.6359C9.96791 28.8562 9.0449 29.5886 8.47919 30.1484C6.97856 31.6252 6.00792 33.2032 5.2576 35.3887L4.92413 36.3593L5.54344 36.6511C6.96665 37.3181 8.2529 37.6575 9.956 37.8183C12.0283 38.0148 14.3626 37.6575 16.3575 36.8476C18.2809 36.0616 19.9006 34.9778 21.3477 33.501L22.0861 32.7566L22.36 33.0782C23.0508 33.9059 24.2536 34.9123 25.3493 35.5911C26.7964 36.4903 27.9099 36.9786 29.5773 37.4491C31.4531 37.9731 34.0077 38.0386 35.9133 37.6039C36.9733 37.3657 39.1051 36.4903 39.1051 36.2998C39.1051 36.1985 38.8907 35.5792 38.5513 34.7158C37.5985 32.2564 36.0145 30.2437 33.9958 28.9217C33.4241 28.5525 33.4777 28.5525 32.6262 28.9455C32.3106 29.0944 31.8282 29.3088 31.5603 29.4279C31.1196 29.6125 30.9469 29.7435 31.1256 29.7435C31.1613 29.7435 31.465 29.8745 31.8044 30.0293C33.704 30.9285 35.1749 32.4112 36.1515 34.4121C36.604 35.3351 36.5981 35.2994 36.2646 35.3946C35.1749 35.6864 34.1626 35.8174 32.9299 35.8174C31.8044 35.8174 31.4293 35.7758 30.28 35.5137C28.0648 35.0135 25.8912 33.769 24.0452 31.9468C23.3545 31.262 23.3128 31.2084 23.3842 31.0893C23.4736 30.9523 23.9738 29.9519 24.1167 29.6244C24.1703 29.5112 24.4085 28.8919 24.6526 28.2547C25.2243 26.766 25.5935 25.9264 26.2545 24.5925C26.8083 23.4849 27.6777 21.9188 28.1303 21.2101C28.2732 20.9898 28.3863 20.7933 28.3863 20.7754C28.3863 20.7635 28.4161 20.7159 28.4459 20.6742C28.4816 20.6325 28.7793 20.1978 29.1188 19.7095C30.6015 17.53 32.7215 15.0349 34.4067 13.4867C35.0081 12.9269 35.1272 12.7542 34.7164 13.0341C34.5973 13.1175 34.4722 13.1889 34.4543 13.1889C34.3769 13.1889 33.0669 14.0405 32.3999 14.5228C30.6194 15.815 28.7079 17.7146 27.1537 19.7393C26.2962 20.8588 25.0933 22.7524 24.5097 23.9136C24.3847 24.1757 24.2477 24.3841 24.2179 24.3841C24.1822 24.3841 24.1584 24.3722 24.1584 24.3662C24.1584 24.3543 24.075 23.9553 23.9738 23.4849C23.414 20.8469 23.8844 18.3875 25.4268 15.8924C26.2902 14.493 27.2073 13.4688 28.6543 12.2659C29.3689 11.6704 30.4884 10.9439 31.4769 10.4378C33.0847 9.60409 35.5381 8.76445 37.1995 8.48457C37.4139 8.44884 37.7236 8.39525 37.8843 8.36547C38.8967 8.18683 41.7848 8.04391 41.7848 8.17492C41.7848 8.21065 41.761 8.25828 41.7252 8.27615C41.6955 8.29401 41.6657 8.38334 41.6657 8.46671C41.6657 8.69895 41.1655 10.8963 40.8618 11.9801C40.439 13.5105 39.5696 15.9937 39.2837 16.5117C39.254 16.5653 39.0813 16.9048 38.9086 17.268C37.7593 19.6083 36.741 21.0434 35.0975 22.6333C33.9005 23.8005 32.8406 24.5568 31.066 25.5274C30.2323 25.9859 28.7674 26.5278 27.5586 26.8315C27.0048 26.9744 27.0048 26.9744 26.8678 27.2424C26.6832 27.6116 26.0639 29.0825 26.0639 29.1599C26.0639 29.2433 26.4093 29.1956 27.5824 28.9336C29.2141 28.5763 30.2502 28.2012 31.8461 27.4032C33.8589 26.4028 35.2344 25.4143 36.7886 23.8541C37.9677 22.6691 38.7002 21.7401 39.6172 20.2454C40.0579 19.5368 40.7784 18.1612 41.0404 17.536C41.1298 17.3216 41.2488 17.0417 41.3084 16.9107C41.6836 16.0889 42.3922 14.0881 42.6244 13.2187C42.7197 12.8554 42.8507 12.3493 42.9162 12.0873C42.9877 11.8253 43.077 11.4739 43.1187 11.3131C43.3092 10.6045 43.7082 8.7049 43.7737 8.18683C43.7916 8.03795 43.8214 7.83549 43.8392 7.74021C43.8869 7.46629 43.9285 7.06731 43.9702 6.6326L44 6.23958L43.5653 6.22172C43.3211 6.21576 43.0055 6.1979 42.8567 6.18599C42.4517 6.15621 40.0876 6.16217 39.5815 6.19194C37.8248 6.29318 36.0622 6.60283 34.3412 7.10899C32.4059 7.68066 31.2268 8.18087 29.7262 9.06219C28.035 10.0567 27.1656 10.7236 25.9389 11.986C24.4799 13.4748 23.5391 14.8503 22.7649 16.613C22.4374 17.3573 22.2052 18.0421 22.1516 18.4173C22.1337 18.5662 22.0861 18.6614 22.0503 18.6495C22.0146 18.6376 21.8479 18.2267 21.6811 17.7384C20.9785 15.6661 20.0138 14.0345 18.537 12.4148C17.1614 10.9082 15.3273 9.52667 13.4991 8.63344C13.1895 8.48457 12.8382 8.30592 12.7191 8.24637C12.1414 7.93672 10.081 7.19236 9.44388 7.06136C9.33074 7.03754 9.20568 7.00181 9.17591 6.97799C9.0985 6.9363 7.68124 6.6326 6.77014 6.47182C4.93009 6.13835 2.58982 6.02521 0.672353 6.17408ZM22.1516 24.396C22.2052 24.7771 22.5744 25.8728 22.8483 26.4445L23.0805 26.9506L22.9733 27.2305C22.6637 28.0225 22.1218 29.3028 22.0801 29.3445C22.0325 29.3921 21.699 28.7073 21.4727 28.094C21.4013 27.9034 21.3238 27.7188 21.3 27.689C21.2822 27.6533 21.2048 27.4627 21.1333 27.2662L21.0023 26.903L21.1452 26.641C21.4251 26.1348 21.6752 25.3785 21.9193 24.3067C21.9789 24.0566 22.1099 24.1102 22.1516 24.396Z" fill="#00BEEA"/>
</svg>
